<svg xmlns="http://www.w3.org/2000/svg" width="965.404" height="168.39" viewBox="-413.904 -72.195 965.404 168.39" xmlns:v="https://vecta.io/nano"><path d="M-130.37-72.195h-46.397v168.39h78.868V64.43h-32.471V-72.195zm86.812 0h-46.397v168.39h78.868V64.43h-32.471V-72.195zm-279.741 1.908c-1.223-1.302-2.98-1.908-4.783-1.908h-62.561c-1.802 0-3.559.6-4.782 1.908a304.2 304.2 0 0 0-17.136 20.045c-.901 1.162-1.343 2.734-1.343 4.193V70.035c0 1.473.438 3.042 1.343 4.192 5.824 7.523 12.806 15.444 17.123 20.049 1.227 1.302 2.98 1.912 4.782 1.912h62.564c1.802 0 3.56-.597 4.783-1.912 4.316-4.598 11.298-12.525 17.126-20.049.897-1.157 1.339-2.727 1.339-4.192v-46.62h-42.368v44.729h-24.32V-44.14h24.32V.588h42.368v-46.62c0-1.473-.438-3.042-1.339-4.193-5.828-7.517-12.81-15.44-17.126-20.045h.003v-.017h.007zm118.686 0c-1.223-1.302-2.98-1.908-4.782-1.908h-62.564c-1.799 0-3.556.6-4.779 1.908-4.316 4.601-11.302 12.535-17.126 20.045-.897 1.162-1.343 2.734-1.343 4.193V96.188h42.368V46.581h24.32v49.607h42.368V-46.045c0-1.47-.438-3.042-1.343-4.193-5.827-7.513-12.809-15.44-17.126-20.042h.007v-.007zm-48.219 88.872V-44.14h24.32v62.725h-24.32zm535.07 49.559h-24.324V-72.195h-42.371V70.049c0 1.466.438 3.042 1.343 4.193 5.831 7.509 12.813 15.437 17.13 20.048 1.22 1.302 2.98 1.905 4.782 1.905h62.557c1.81 0 3.563-.604 4.79-1.905 4.316-4.604 11.298-12.539 17.122-20.048.904-1.165 1.343-2.741 1.343-4.193V-72.195h-42.371V68.144h-.001zM187.327-70.287c-1.22-1.302-2.974-1.908-4.782-1.908H96.753v168.39h85.792c1.809 0 3.563-.604 4.782-1.905 4.316-4.604 11.306-12.539 17.13-20.048.897-1.165 1.343-2.741 1.343-4.193v-116.08c0-1.473-.438-3.042-1.343-4.193-5.824-7.517-12.813-15.44-17.13-20.045v-.018zm-23.899 97.293v41.138h-24.296V-44.14h24.296v71.146zm334.429-99.201h39.61V1.219a6.17 6.17 0 0 1-1.411 3.933l-27.791 33.583v57.46h-45.633v-57.46L434.938 5.152c-.932-1.11-1.426-2.504-1.426-3.933v-73.414h39.535v62.591l10.299 12.22h4.275l10.236-12.22v-62.591zM20.743-37.748c-.544-.586-1.329-.853-2.131-.853h-31.676c-.802 0-1.593.267-2.134.853-1.929 2.052-3.501 4.056-6.112 7.414-.397.518-.6 1.22-.6 1.871V24.08c0 .657.202 1.35.6 1.87l6.112 7.414c.545.582 1.333.85 2.134.85h31.676c.802 0 1.593-.268 2.131-.85 1.933-2.056 3.505-4.057 6.112-7.414.401-.521.603-1.22.603-1.87v-52.543c0-.658-.202-1.353-.603-1.871l-6.112-7.414zM8.529 5.224v13.285H-2.995v-41.415H8.529v28.13zm26.993 28.99H54.45V10.181h20.268v-16.91H54.45V-21.69h22.878V-38.6H35.522v72.814zM425.249-72.195h-24.557-42.372-24.639v34.481h24.598V96.195h42.372V-37.713h24.598v-34.482zM531.396 75.338h10.024c.815 0 1.433.213 1.871.631.452.425.671 1.027.671 1.809v2.576c0 .651-.191 1.179-.575 1.569-.391.391-.932.582-1.645.582h-.534l3.028 6.077h-2.974l-2.433-5.31h-4.995v5.31h-2.439V75.338h.001zm9.765 5.988c.116 0 .349-.226.349-.356v-3.315c0-.124-.232-.356-.349-.356h-7.332v4.021h7.332v.006zm-3.693-13.182c-7.743 0-14.019 6.276-14.019 14.025s6.275 14.026 14.019 14.026A14.03 14.03 0 0 0 551.5 82.169a14.03 14.03 0 0 0-14.032-14.025zm0 25.885c-6.551 0-11.867-5.303-11.867-11.86a11.87 11.87 0 0 1 11.867-11.867 11.87 11.87 0 0 1 11.867 11.867c0 6.558-5.317 11.86-11.867 11.86z"/></svg>